# xmcd
#
# Track frame offsets: 
#        150
#        15152
#        27993
#        40653
#        52440
#        65891
#        79589
#        91912
#        102622
#        120320
#
# Disc length: 1751 seconds
#
# Revision: 0
# Processed by: cddbd v1.5.2PL0 Copyright (c) Steve Scherf et al.
# Submitted via: ExactAudioCopy v0.99pb4
#
DISCID=7c06d50a
DTITLE=Paul Yandell - One More Again
DYEAR=2003
DGENRE=Instrumental
TTITLE0=China Boy
TTITLE1=Mystery Train
TTITLE2=I've Been Lucky
TTITLE3=Gallopin' Guitar
TTITLE4=Clear Springs Rag
TTITLE5=There Will Never Be Another You
TTITLE6=Walk, Don't Run
TTITLE7=City Slicker
TTITLE8=Kentucky
TTITLE9=Shadow Waltz
EXTD=
EXTT0=
EXTT1=
EXTT2=
EXTT3=
EXTT4=
EXTT5=
EXTT6=
EXTT7=
EXTT8=
EXTT9=
PLAYORDER=
